<svg width="266" height="64" viewBox="0 0 266 64" fill="none" xmlns="http://www.w3.org/2000/svg">
<path d="M250.158 57.791C246.225 57.791 243.809 54.7848 243.809 49.8682C243.809 44.7549 246.281 41.8892 250.158 41.8892C251.816 41.8892 253.192 42.5916 254.12 43.9401V37.1411H257.716V57.3695H254.12V55.6558C253.164 57.0324 251.816 57.791 250.158 57.791ZM250.804 54.8129C252.968 54.8129 254.12 53.071 254.12 49.8682C254.12 46.6653 252.911 44.8673 250.804 44.8673C248.669 44.8673 247.517 46.6372 247.517 49.8682C247.517 53.0429 248.697 54.8129 250.804 54.8129Z" fill="#127D6B"/>
<path d="M234.704 57.791C230.237 57.791 227.484 54.7848 227.484 49.8682C227.484 44.7549 230.321 41.8892 234.704 41.8892C239.143 41.8892 241.897 44.9234 241.897 49.8682C241.897 54.9253 239.059 57.791 234.704 57.791ZM234.704 54.8129C236.98 54.8129 238.188 53.071 238.188 49.8682C238.188 46.6653 236.952 44.8673 234.704 44.8673C232.401 44.8673 231.192 46.6372 231.192 49.8682C231.192 53.0429 232.429 54.8129 234.704 54.8129Z" fill="#127D6B"/>
<path d="M218.38 57.791C213.912 57.791 211.159 54.7848 211.159 49.8682C211.159 44.7549 213.997 41.8892 218.38 41.8892C222.819 41.8892 225.572 44.9234 225.572 49.8682C225.572 54.9253 222.734 57.791 218.38 57.791ZM218.38 54.8129C220.655 54.8129 221.863 53.071 221.863 49.8682C221.863 46.6653 220.627 44.8673 218.38 44.8673C216.076 44.8673 214.868 46.6372 214.868 49.8682C214.868 53.0429 216.104 54.8129 218.38 54.8129Z" fill="#127D6B"/>
<path d="M195.427 57.3695V37.1411H199.023V44.3335C200.006 42.7039 201.58 41.8892 203.49 41.8892C206.496 41.8892 208.547 43.6873 208.547 47.3396V57.3695H204.951V48.0701C204.951 46.0192 204.08 44.8673 202.254 44.8673C200.259 44.8673 199.023 46.6091 199.023 48.632V57.3695H195.427Z" fill="#127D6B"/>
<path d="M184.343 57.3695V42.3106H187.939V44.502C188.922 42.7039 190.439 41.8892 192.069 41.8892C192.687 41.8892 193.249 42.0578 193.53 42.3106V45.4292C193.052 45.2887 192.518 45.2325 191.872 45.2325C189.147 45.2325 187.939 46.862 187.939 49.3625V57.3695H184.343Z" fill="#127D6B"/>
<path d="M174.536 57.791C170.069 57.791 167.316 54.7848 167.316 49.8682C167.316 44.7549 170.153 41.8892 174.536 41.8892C178.975 41.8892 181.728 44.9234 181.728 49.8682C181.728 54.9253 178.891 57.791 174.536 57.791ZM174.536 54.8129C176.812 54.8129 178.02 53.071 178.02 49.8682C178.02 46.6653 176.784 44.8673 174.536 44.8673C172.232 44.8673 171.024 46.6372 171.024 49.8682C171.024 53.0429 172.26 54.8129 174.536 54.8129Z" fill="#127D6B"/>
<path d="M155.125 57.3695H151.528V37.1411H155.125V43.9963C156.08 42.6478 157.428 41.8892 159.086 41.8892C162.991 41.8892 165.407 44.8954 165.407 49.812C165.407 54.9253 162.935 57.791 159.086 57.791C157.428 57.791 156.052 57.0886 155.125 55.7681V57.3695ZM158.44 44.8673C156.277 44.8673 155.125 46.6092 155.125 49.812C155.125 53.0148 156.305 54.8129 158.44 54.8129C160.575 54.8129 161.727 53.0429 161.727 49.812C161.727 46.6372 160.547 44.8673 158.44 44.8673Z" fill="#127D6B"/>
<path d="M135.094 57.3695V37.1411H138.69V44.3335C139.673 42.7039 141.247 41.8892 143.157 41.8892C146.163 41.8892 148.214 43.6873 148.214 47.3396V57.3695H144.618V48.0701C144.618 46.0192 143.747 44.8673 141.921 44.8673C139.926 44.8673 138.69 46.6091 138.69 48.632V57.3695H135.094Z" fill="#127D6B"/>
<path d="M124.056 57.4257C120.235 57.4257 117.875 54.4758 117.875 49.6715C117.875 44.6706 120.291 41.8892 124.056 41.8892C125.854 41.8892 127.259 42.5635 128.186 43.8277V42.3106H131.782V57.8472C131.782 61.9209 128.972 64 125.236 64C121.527 64 118.83 62.2862 118.296 58.7181H121.921C122.145 60.3195 123.438 61.1624 125.18 61.1624C126.978 61.1624 128.186 60.2914 128.186 57.9033V55.3748C127.202 56.7234 125.798 57.4257 124.056 57.4257ZM124.871 54.4477C127.034 54.4477 128.186 52.762 128.186 49.6715C128.186 46.6091 126.978 44.8673 124.871 44.8673C122.735 44.8673 121.583 46.553 121.583 49.6715C121.583 52.7339 122.735 54.4477 124.871 54.4477Z" fill="#127D6B"/>
<path d="M111.691 40.6249V37.1411H115.287V40.6249H111.691ZM111.691 57.3695V42.3106H115.287V57.3695H111.691Z" fill="#127D6B"/>
<path d="M109.104 52.4529C108.29 55.9367 105.593 57.791 101.996 57.791C97.445 57.791 94.6636 54.7848 94.6636 49.8682C94.6636 44.7549 97.4731 41.8892 101.856 41.8892C106.267 41.8892 108.992 44.8673 108.992 49.7277V50.5705H98.3721C98.5407 53.3239 99.8049 54.841 101.996 54.841C103.682 54.841 104.834 54.0543 105.312 52.4529H109.104ZM101.856 44.8392C99.9454 44.8392 98.7935 46.0472 98.4564 48.3229H105.227C104.89 46.0753 103.738 44.8392 101.856 44.8392Z" fill="#127D6B"/>
<path d="M75.7814 57.3695V38.2649H79.7709L86.8508 49.6153L88.1713 52.2281L88.0308 38.2649H91.7956V57.3695H87.8342L80.7542 46.0472L79.4057 43.3782L79.5742 57.3695H75.7814Z" fill="#127D6B"/>
<path d="M138.825 31.976V16.917H142.421V18.8556C143.377 17.2823 144.838 16.4956 146.608 16.4956C148.518 16.4956 150.007 17.3385 150.766 19.0522C151.777 17.3385 153.379 16.4956 155.317 16.4956C158.211 16.4956 160.178 18.2937 160.178 21.946V31.976H156.581V22.6765C156.581 20.6256 155.823 19.4737 154.221 19.4737C152.423 19.4737 151.3 21.2156 151.3 23.2384V31.976H147.703V22.6765C147.703 20.6256 146.945 19.4737 145.343 19.4737C143.545 19.4737 142.421 21.2156 142.421 23.2384V31.976H138.825Z" fill="#127D6B"/>
<path d="M125.984 21.8618H122.36C122.838 18.5184 125.282 16.4956 129.075 16.4956C133.261 16.4956 135.396 18.968 135.396 22.4517V28.2955C135.396 30.1498 135.565 31.1893 135.846 31.976H132.109C131.913 31.4703 131.828 30.7398 131.8 29.925C130.564 31.6669 128.71 32.3974 126.912 32.3974C123.962 32.3974 121.854 30.9364 121.854 28.0427C121.854 25.9917 123.006 24.4465 125.31 23.6879C127.305 23.0136 129.243 22.8451 131.772 22.817V22.4517C131.772 20.5132 130.845 19.4737 128.85 19.4737C127.136 19.4737 126.209 20.4289 125.984 21.8618ZM125.479 27.846C125.479 28.9979 126.378 29.7284 127.839 29.7284C130.058 29.7284 131.772 27.9303 131.772 25.6827V25.0365C126.659 25.1208 125.479 26.3289 125.479 27.846Z" fill="#127D6B"/>
<path d="M119.914 27.0593C119.1 30.5431 116.403 32.3974 112.806 32.3974C108.255 32.3974 105.474 29.3912 105.474 24.4746C105.474 19.3613 108.283 16.4956 112.666 16.4956C117.077 16.4956 119.802 19.4737 119.802 24.3341V25.177H109.182C109.351 27.9303 110.615 29.4474 112.806 29.4474C114.492 29.4474 115.644 28.6607 116.122 27.0593H119.914ZM112.666 19.4456C110.755 19.4456 109.604 20.6537 109.266 22.9294H116.037C115.7 20.6818 114.548 19.4456 112.666 19.4456Z" fill="#127D6B"/>
<path d="M95.3658 31.976V16.917H98.962V19.1084C99.9453 17.3104 101.462 16.4956 103.092 16.4956C103.71 16.4956 104.272 16.6642 104.553 16.917V20.0356C104.075 19.8951 103.541 19.8389 102.895 19.8389C100.17 19.8389 98.962 21.4684 98.962 23.9689V31.976H95.3658Z" fill="#127D6B"/>
<path d="M75.7814 31.976V12.8713H82.7209C88.7051 12.8713 92.4418 16.4956 92.4418 22.4517C92.4418 28.4079 88.7051 31.976 82.7209 31.976H75.7814ZM82.7209 28.9136C86.4013 28.9136 88.5927 26.5255 88.5927 22.4517C88.5927 18.3499 86.4013 15.9337 82.7209 15.9337H79.5742V28.9136H82.7209Z" fill="#127D6B"/>
<path d="M263.202 42.544C261.582 42.544 260.417 41.3902 260.417 39.837C260.417 38.2838 261.582 37.1411 263.202 37.1411C264.81 37.1411 265.986 38.2838 265.986 39.837C265.986 41.3791 264.81 42.544 263.202 42.544ZM263.202 42.0337C264.455 42.0337 265.376 41.1018 265.376 39.837C265.376 38.5945 264.455 37.6515 263.202 37.6515C261.948 37.6515 261.027 38.5945 261.027 39.837C261.027 41.1129 261.948 42.0337 263.202 42.0337ZM262.015 41.3015V38.2838H263.324C264.067 38.2838 264.511 38.6499 264.511 39.2379C264.511 39.5597 264.389 39.7926 264.156 39.9369C264.278 40.0367 264.344 40.1699 264.389 40.3474L264.622 41.3015H263.745L263.601 40.536C263.546 40.2697 263.446 40.2142 263.213 40.2142H262.869V41.3015H262.015ZM263.279 38.9384H262.869V39.6373H263.268C263.546 39.6373 263.701 39.5153 263.701 39.2934C263.701 39.0826 263.546 38.9384 263.279 38.9384Z" fill="#127D6B"/>
<path d="M58.2211 23.7272C58.2211 24.1226 58.2211 24.3762 58.2211 24.6313C58.2211 34.2094 58.201 43.7876 58.2325 53.3672C58.2383 55.2886 57.476 56.8217 56.2639 58.2115C55.0661 59.5841 53.4614 59.4824 51.8853 59.3878C51.3394 59.3549 51.1932 58.5668 51.6231 58.1327C51.8036 57.9493 52.0501 57.8304 52.2664 57.6842C53.9356 56.5523 54.8684 55.0594 54.8569 52.9603C54.7953 42.6658 54.7738 32.3712 54.758 22.0752C54.758 21.5293 54.5703 21.2212 54.1419 20.9103C46.6556 15.4586 39.1779 9.99677 31.7145 4.5135C31.2245 4.15243 30.9207 4.1553 30.4365 4.5135C22.9387 10.0312 15.4309 15.5316 7.90875 21.0149C7.44166 21.3545 7.37575 21.7456 7.37575 22.2342C7.36715 26.8449 7.34852 31.4542 7.34279 36.0649C7.33563 41.7015 7.33993 47.3395 7.33993 52.9761C7.33993 54.9046 8.2082 55.7743 10.1296 55.7758C13.0195 55.7758 15.908 55.7758 18.7979 55.7758C20.0101 55.7758 20.7752 56.4191 20.7938 57.445C20.8124 58.4923 19.9513 59.4064 18.8409 59.4136C15.4739 59.4351 12.1054 59.4809 8.74119 59.3792C7.92021 59.3549 6.9846 58.9723 6.33125 58.4608C4.76951 57.2401 3.85252 55.621 3.85682 53.5349C3.87688 43.9567 3.86542 34.3785 3.86542 24.7989C3.86542 24.5238 3.86542 24.2487 3.86542 23.8604C3.55021 24.0825 3.33959 24.2258 3.1347 24.3762C2.11599 25.127 1.01704 25.0296 0.357955 24.1284C-0.291098 23.2429 -0.0432255 22.1568 0.98265 21.4075C4.64485 18.7339 8.32139 16.079 11.9693 13.3839C17.4225 9.35632 22.8541 5.30153 28.3002 1.26537C28.7773 0.911471 29.2573 0.527483 29.7946 0.298237C30.9738 -0.206105 32.1042 -0.0728551 33.1674 0.713745C40.5706 6.19845 47.9795 11.6746 55.3942 17.1449C57.3342 18.5763 59.3143 19.9518 61.24 21.4018C61.6325 21.6969 61.9864 22.1669 62.1426 22.6282C62.379 23.3303 62.1426 23.998 61.5179 24.4651C60.9462 24.8935 59.9648 24.925 59.3558 24.5295C59.0048 24.3017 58.6724 24.0467 58.2239 23.7272H58.2211Z" fill="#127D6B"/>
<path d="M17.3653 33.1291C17.3538 24.5912 22.9259 18.1364 30.4595 17.1005C31.6989 16.93 32.9697 16.953 34.2263 16.9573C34.4871 16.9573 34.9212 17.2395 34.9656 17.4559C35.0244 17.7396 34.8582 18.1637 34.6461 18.3929C33.7864 19.3185 32.7992 20.1309 31.9926 21.0966C29.7445 23.7845 28.5739 26.8435 28.9579 30.4169C29.4866 35.3471 33.8968 39.4463 38.8384 39.6526C40.7541 39.7328 42.5852 39.4864 44.4005 38.909C44.7157 38.8087 45.3103 38.8173 45.4149 38.9921C45.5969 39.2973 45.6442 39.8389 45.4923 40.1598C44.5753 42.0969 43.144 43.6286 41.4404 44.898C33.4411 50.8656 21.6178 47.2937 18.265 37.9003C17.6088 36.062 17.381 34.1478 17.3681 33.1291H17.3653Z" fill="#ACEF00"/>
</svg>
